<?xml version="1.0" encoding="utf-8" standalone="no"?>
<svg xmlns="http://www.w3.org/2000/svg" version="1.1" viewBox="-64 -64 128 128" width="128" height="128">
  <circle cx="0" cy="0" r="58" fill="white" stroke="none"/>
  <path d="M 51.983694033880035 -25.723443676769744 A 43.5764927455159 43.5764927455159 0 0 0 27.289751224332086 51.17879910777573" fill="none" stroke="#bf6060" stroke-width="4"/>
  <path d="M -15.042006328489379 -56.01551611485594 A 43.5764927455159 43.5764927455159 0 0 0 55.533038774302256 -16.73563875362521" fill="none" stroke="#acbf60" stroke-width="4"/>
  <path d="M -57.43848720617697 -8.051098525409055 A 43.5764927455159 43.5764927455159 0 0 0 6.3036219197009205 -57.65643373200832" fill="none" stroke="#60bf86" stroke-width="4"/>
  <path d="M -52.24057375475969 25.19766762566554 A 43.5764927455159 43.5764927455159 0 0 0 -26.772016091275717 -51.451522372117175" fill="none" stroke="#6086bf" stroke-width="4"/>
  <path d="M -42.40011960680005 39.57562200811315 A 43.5764927455159 43.5764927455159 0 0 0 -40.84459843594171 -41.17910609285573" fill="none" stroke="#ac60bf" stroke-width="4"/>
  <circle cx="0" cy="0" r="58" fill="none" stroke="black" stroke-width="4"/>
  <circle cx="55.22280794291416" cy="17.732497931764087" r="6" fill="#bf6060" stroke="none"/>
  <circle cx="28.206526168784052" cy="-50.679304271957996" r="6" fill="#acbf60" stroke="none"/>
  <circle cx="-35.62114445390943" cy="-45.772634486052" r="6" fill="#60bf86" stroke="none"/>
  <circle cx="-55.04109301579597" cy="-18.28874188200208" r="6" fill="#6086bf" stroke="none"/>
  <circle cx="-57.98924295219974" cy="-1.1170057433839866" r="6" fill="#ac60bf" stroke="none"/>
  <path transform="scale(2.8) translate(-20,-277)" fill="black" stroke="none" d="m 30.298926,268.30095 h -9.004102 q -0.992187,5.10977 -1.513086,9.22735 -0.520898,4.09277 -0.520898,6.77168 0,1.28984 0.297656,2.23242 0.297657,0.91777 0.79375,1.48828 0.496094,0.57051 1.165821,0.84336 0.669726,0.27285 1.413867,0.27285 0.942578,0 1.95957,-0.19844 1.016992,-0.22324 1.885156,-0.57051 v 2.23243 q -0.471289,0.29765 -0.992187,0.52089 -0.496094,0.22325 -1.116211,0.37207 -0.620117,0.14883 -1.389063,0.22325 -0.74414,0.0992 -1.711523,0.0992 -3.447852,0 -5.109766,-1.78594 -1.661914,-1.78594 -1.661914,-5.01055 0,-1.6123 0.297657,-3.47265 0.297656,-1.88516 0.818554,-3.96875 0.520899,-2.1084 1.190625,-4.41524 0.694531,-2.33164 1.463477,-4.86172 h -4.737695 q -1.116211,0 -1.885157,0.34727 -0.74414,0.32246 -1.190625,0.91777 -0.446484,0.59531 -0.644922,1.38906 -0.1736323,0.76895 -0.1736323,1.66192 H 7.8010746 q 0,-2.30684 0.471289,-3.91914 0.4712891,-1.61231 1.3146484,-2.6293 0.868164,-1.0418 2.083594,-1.51309 1.215429,-0.47128 2.678906,-0.47128 h 15.949414 z"/>
</svg>
